<svg version="1.1" id="Layer_1" xmlns="http://www.w3.org/2000/svg" xmlns:xlink="http://www.w3.org/1999/xlink" x="0px" y="0px"
	 width="100%" viewBox="0 0 359 290" enable-background="new 0 0 359 290" xml:space="preserve">
<path fill="#FFFFFF" opacity="1.000000" stroke="none" 
	d="
M167.974670,2.003547 
	C156.660004,21.760649 145.391617,41.544430 134.019333,61.268314 
	C118.731468,87.783325 103.422585,114.286789 87.950790,140.694473 
	C86.130203,143.801895 86.655136,146.003876 88.275902,148.796692 
	C114.408813,193.827591 140.469116,238.900604 166.533737,283.971100 
	C167.161545,285.056671 167.649567,286.223083 168.520844,288.000763 
	C165.585510,288.000763 163.316238,288.000763 161.046967,288.000763 
	C137.394791,288.000763 113.742378,287.949860 90.090752,288.064392 
	C87.091232,288.078918 85.395035,287.271057 83.822632,284.538574 
	C57.521660,238.833618 31.112988,193.190491 4.603355,147.606232 
	C3.058028,144.948990 3.578171,143.192337 4.934175,140.855225 
	C31.314014,95.388962 57.627834,49.884384 83.945862,4.382266 
	C84.444138,3.520769 84.829697,2.594073 85.133926,1.348901 
	C85.444443,1.000000 85.888893,1.000000 86.974716,1.280027 
	C89.425186,1.704722 91.234138,1.973162 93.043411,1.975393 
	C118.020477,2.006188 142.997574,2.000385 167.974670,2.003547 
z"/>
<path fill="#0131AD" opacity="1.000000" stroke="none" 
	d="
M252.666672,0.999999 
	C253.499329,2.307593 253.799271,3.739724 254.526901,4.904718 
	C277.446533,41.600372 300.409576,78.268929 323.354034,114.949097 
	C324.033295,116.034958 324.583801,117.201355 325.488892,118.874802 
	C323.661987,118.973831 322.416565,119.099648 321.171082,119.100235 
	C296.520355,119.111755 271.869080,119.178299 247.219910,118.982033 
	C245.159378,118.965630 242.216415,117.725288 241.191772,116.101700 
	C217.657715,78.811165 194.333328,41.388329 171.171814,3.332519 
	C173.316086,2.448788 175.258026,2.029886 177.200836,2.025956 
	C199.906387,1.980028 222.612137,2.020172 245.317581,1.953333 
	C247.212646,1.947755 249.105896,1.332172 251.000000,1.000000 
	C251.444443,1.000000 251.888901,1.000000 252.666672,0.999999 
z"/>
<path fill="#1943B3" opacity="1.000000" stroke="none" 
	d="
M250.531342,1.000000 
	C249.105896,1.332172 247.212646,1.947755 245.317581,1.953333 
	C222.612137,2.020172 199.906387,1.980028 177.200836,2.025956 
	C175.258026,2.029886 173.316086,2.448788 171.080063,3.003972 
	C170.226013,2.756837 169.665634,2.180649 169.052628,1.302230 
	C196.020889,1.000000 223.041794,1.000000 250.531342,1.000000 
z"/>
<path fill="#323232" opacity="1.000000" stroke="none" 
	d="
M168.156769,1.757097 
	C142.997574,2.000385 118.020477,2.006188 93.043411,1.975393 
	C91.234138,1.973162 89.425186,1.704722 87.308044,1.280027 
	C113.687561,1.000000 140.375122,1.000000 167.531342,1.000000 
	C168.112946,1.170215 168.225891,1.340431 168.156769,1.757097 
z"/>
<path fill="#0232AE" opacity="1.000000" stroke="none" 
	d="
M255.000198,144.466400 
	C281.603302,144.466522 307.706360,144.466522 334.921143,144.466522 
	C330.740448,151.763474 327.087128,158.189499 323.387695,164.588837 
	C300.644684,203.929962 277.842102,243.236862 255.218658,282.646606 
	C253.003632,286.505127 250.711517,288.224792 245.991730,288.165985 
	C222.500427,287.872986 199.003494,288.032166 175.508545,288.032166 
	C173.717438,288.032166 171.926315,288.032166 169.007416,288.032166 
	C188.959000,253.488251 208.461441,219.721985 228.410553,185.182343 
	C218.474670,185.182343 209.155533,185.182343 199.603134,185.182343 
	C199.603134,171.427597 199.603134,158.329834 199.603134,144.466263 
	C217.980453,144.466263 236.240311,144.466263 255.000198,144.466400 
z"/>
</svg>