<svg version="1.1" id="Layer_1" xmlns="http://www.w3.org/2000/svg" xmlns:xlink="http://www.w3.org/1999/xlink" x="0px" y="0px"
	 width="100%" viewBox="0 0 1492 268" enable-background="new 0 0 1492 268" xml:space="preserve">

<path fill="#000" opacity="1.000000" stroke="none" 
	d="
M1493.000000,76.541931 
	C1492.275391,77.850792 1491.448364,78.634697 1490.842285,79.562889 
	C1485.996826,86.984444 1477.768799,90.158501 1470.180420,87.483078 
	C1462.056274,84.618782 1457.150024,77.144043 1458.026978,68.967056 
	C1458.907349,60.758121 1465.454102,54.133831 1473.631592,53.177422 
	C1481.801392,52.221916 1489.195312,57.147812 1492.689209,65.833366 
	C1493.000000,69.361290 1493.000000,72.722572 1493.000000,76.541931 
M1487.609131,79.946587 
	C1492.176636,72.627197 1491.672974,65.311417 1486.234009,59.970154 
	C1481.484985,55.306232 1473.403687,54.314178 1467.850342,57.756184 
	C1462.590820,61.015999 1459.835205,65.863548 1460.382080,71.944870 
	C1460.942993,78.184212 1464.416626,82.884193 1470.445312,84.988823 
	C1476.859253,87.227966 1482.531616,85.633942 1487.609131,79.946587 
z"/>
<path fill="#fff" opacity="1.000000" stroke="none" 
	d="
M535.570801,172.328156 
	C543.553101,175.318665 551.438538,177.609161 558.610596,181.289642 
	C566.238403,185.203979 570.879028,191.976562 571.372864,200.899216 
	C572.171265,215.324829 572.826965,229.758331 573.559021,244.510376 
	C545.897949,244.510376 519.174377,244.510376 491.969299,244.510376 
	C491.969299,233.868073 491.567719,223.396194 492.078247,212.968994 
	C492.627747,201.745605 487.626617,195.423874 474.427582,193.050537 
	C471.334198,192.494339 468.125763,192.407593 464.969513,192.399033 
	C444.641052,192.343948 424.312408,192.370636 403.983826,192.370453 
	C402.513550,192.370438 401.043243,192.370438 399.174072,192.370438 
	C399.174072,209.839127 399.174072,226.929703 399.174072,244.404648 
	C373.561401,244.404648 348.347382,244.404648 322.795715,244.404648 
	C322.795715,180.880096 322.795715,117.315430 322.795715,53.352966 
	C324.492126,53.263123 326.090393,53.104900 327.688721,53.104500 
	C377.677032,53.091923 427.666321,52.913673 477.653259,53.175404 
	C500.892548,53.297081 523.836609,56.068634 545.640930,64.828049 
	C549.933411,66.552467 554.101746,68.770309 557.986023,71.287331 
	C565.822937,76.365562 571.231323,83.297615 572.991760,92.751152 
	C575.920593,108.478745 576.755493,124.140213 571.891907,139.675629 
	C569.867920,146.140579 566.247375,151.541428 560.072266,154.486053 
	C548.271973,160.113052 536.284790,165.347992 524.990906,170.466599 
	C527.453796,170.896042 531.306885,171.567886 535.570801,172.328156 
M423.500000,148.909531 
	C440.803192,148.909164 458.106720,148.841034 475.409363,148.938324 
	C483.499573,148.983810 489.162231,145.262589 492.338043,138.087097 
	C495.446381,131.064087 495.779999,123.572815 494.376038,116.064674 
	C491.863220,102.626434 486.211823,97.990997 472.585999,97.989273 
	C449.958771,97.986404 427.331573,97.988457 404.704346,97.988441 
	C402.929810,97.988441 401.155304,97.988441 399.295715,97.988441 
	C399.295715,115.213005 399.295715,131.905045 399.295715,148.909515 
	C407.246582,148.909515 414.873291,148.909515 423.500000,148.909531 
z"/>
<path fill="#fff" opacity="1.000000" stroke="none" 
	d="
M1452.858398,185.717438 
	C1450.556519,192.205032 1448.761230,198.485077 1446.038818,204.333588 
	C1437.871216,221.879715 1422.067383,229.531235 1404.804932,234.776917 
	C1383.807129,241.157730 1362.164185,243.511414 1340.295776,244.418304 
	C1311.598999,245.608353 1282.928711,245.625122 1254.670898,239.973434 
	C1242.686646,237.576523 1230.847046,233.842667 1219.405273,229.496078 
	C1203.884033,223.599670 1193.461914,212.018951 1188.784302,196.093536 
	C1179.029053,162.880905 1178.421997,129.458298 1189.038086,96.328384 
	C1194.514893,79.236946 1208.718628,71.007065 1224.364014,64.972176 
	C1245.287231,56.901459 1267.280273,53.955746 1289.445435,53.431572 
	C1313.907104,52.853085 1338.437622,53.003128 1362.873169,54.182087 
	C1382.498901,55.128994 1401.711670,59.187092 1420.010376,67.087479 
	C1439.702881,75.589676 1450.512451,90.531342 1453.852295,111.292343 
	C1457.828003,136.005646 1457.696045,160.694046 1452.858398,185.717438 
M1373.206665,112.453773 
	C1371.804443,105.685760 1367.020264,101.996994 1360.817017,100.974716 
	C1349.867310,99.170197 1338.796265,97.366470 1327.740601,97.114380 
	C1311.481567,96.743652 1295.130005,96.438637 1279.088989,100.596497 
	C1270.051758,102.939011 1264.460938,108.210648 1264.133423,117.457260 
	C1263.474365,136.061035 1262.672485,154.722717 1263.463379,173.295181 
	C1264.106934,188.406265 1268.724976,192.844406 1283.627075,196.332764 
	C1307.691528,201.965851 1331.876953,201.257339 1355.838745,195.783600 
	C1369.880127,192.575989 1374.448853,186.875259 1375.052368,172.417709 
	C1375.669800,157.626678 1375.659424,142.799866 1375.523560,127.992386 
	C1375.478271,123.060081 1374.196533,118.139122 1373.206665,112.453773 
z"/>
<path fill="#fff" opacity="1.000000" stroke="none" 
	d="
M254.804398,232.879013 
	C238.378540,239.230423 221.475861,240.888504 204.509705,241.869904 
	C169.875610,243.873276 135.199356,244.297302 100.663216,240.777252 
	C86.856392,239.370010 72.979645,236.681458 59.672871,232.753235 
	C33.616428,225.061264 19.333073,206.840714 18.456411,179.617172 
	C17.749538,157.666229 17.803534,135.618454 19.021973,113.697121 
	C20.376167,89.333412 34.658066,73.802330 56.832504,65.069778 
	C76.797546,57.207298 97.880936,54.779911 119.005066,54.230263 
	C148.969421,53.450592 178.983154,53.473633 208.948288,54.235687 
	C226.541428,54.683105 244.161987,56.763458 260.485504,64.529007 
	C278.778351,73.231422 289.260040,91.732452 287.323669,112.512207 
	C261.107422,112.512207 234.860077,112.512207 208.363205,112.512207 
	C206.301483,100.258087 196.821686,96.641083 186.589050,95.548767 
	C165.019562,93.246269 143.334061,92.766022 121.904144,97.052849 
	C106.900116,100.054237 100.751129,106.027489 99.994682,121.188400 
	C99.051643,140.089050 99.236977,159.117065 100.262192,178.018112 
	C100.874146,189.300125 108.743271,196.444229 119.618225,198.864929 
	C141.159515,203.659912 162.965347,203.837067 184.584534,199.597321 
	C201.494095,196.281204 210.257782,183.068100 207.472931,166.280869 
	C189.965530,166.280869 172.371521,166.280869 154.093414,166.280869 
	C154.870010,156.757751 155.604248,147.754181 156.356873,138.525085 
	C201.054199,138.525085 245.281448,138.525085 289.915619,138.525085 
	C289.588409,143.773315 289.382141,148.730850 288.952179,153.668915 
	C287.668152,168.415131 287.161133,183.297897 284.733337,197.857635 
	C281.895813,214.874542 271.310089,226.443634 254.804398,232.879013 
z"/>
<path fill="#fff" opacity="1.000000" stroke="none" 
	d="
M798.410645,53.097122 
	C800.003357,54.050774 801.638489,54.765438 802.243958,55.989471 
	C833.004272,118.173759 863.677307,180.401260 894.351257,242.628235 
	C894.561401,243.054504 894.655884,243.537781 894.947205,244.433929 
	C893.556152,244.563614 892.338318,244.775299 891.120361,244.776199 
	C865.455322,244.795334 839.789978,244.739517 814.125488,244.857849 
	C811.044434,244.872055 809.417603,244.050766 808.146973,241.085129 
	C804.282715,232.066452 799.912537,223.265396 795.992615,214.269257 
	C794.664368,211.220993 792.942993,210.233444 789.594238,210.248428 
	C757.596863,210.391739 725.598328,210.397934 693.601074,210.244339 
	C690.026367,210.227173 688.306580,211.373856 686.949951,214.598740 
	C683.145569,223.642319 679.114624,232.598267 674.852173,241.434021 
	C674.123901,242.943909 671.821716,244.635712 670.233521,244.648712 
	C645.736694,244.849228 621.237793,244.787033 596.739319,244.776215 
	C596.130554,244.775940 595.521790,244.666260 594.147827,244.533875 
	C598.006104,235.903336 601.601990,227.746201 605.289124,219.630524 
	C629.853882,165.561020 654.488953,111.523285 678.901184,57.385082 
	C680.519775,53.795559 682.401611,53.009613 685.979614,53.021141 
	C723.310303,53.141388 760.641541,53.095562 798.410645,53.097122 
M763.171692,143.309250 
	C755.889526,127.532852 748.607300,111.756454 740.898804,95.056404 
	C729.010803,121.464722 717.562988,146.895187 706.024902,172.526199 
	C729.867432,172.526199 752.881104,172.526199 776.606628,172.526199 
	C772.058716,162.640686 767.770142,153.318954 763.171692,143.309250 
z"/>
<path fill="#fff" opacity="1.000000" stroke="none" 
	d="
M1011.380981,97.197510 
	C1005.367432,98.245384 999.708862,98.864403 994.293213,100.362144 
	C985.921021,102.677567 980.365356,108.643936 980.125732,117.166878 
	C979.546204,137.779129 979.494629,158.435837 980.205688,179.040970 
	C980.513245,187.952759 986.603394,193.961197 995.379578,196.183838 
	C1016.561523,201.548340 1038.055298,200.948669 1059.347412,197.607712 
	C1071.657837,195.676071 1075.839355,189.144180 1076.040527,176.466995 
	C1076.066406,174.831299 1076.043945,173.194855 1076.043945,171.264496 
	C1102.968506,171.264496 1129.560303,171.264496 1156.179688,171.264496 
	C1162.746704,196.684052 1150.053467,220.992218 1124.730713,231.955338 
	C1107.768921,239.298721 1089.858643,242.048859 1071.687012,242.584351 
	C1036.217896,243.629532 1000.703064,244.358139 965.367188,239.967026 
	C953.138550,238.447403 941.203674,235.544235 929.973450,230.083298 
	C910.997803,220.855942 900.439209,205.253525 899.294922,184.841919 
	C897.945679,160.772461 897.834473,136.503464 899.268982,112.445152 
	C900.669922,88.948135 914.646973,73.473083 936.407654,64.956139 
	C952.236389,58.760929 968.801270,55.666203 985.631165,55.178024 
	C1016.083374,54.294701 1046.567017,53.858879 1077.027832,54.177551 
	C1091.949951,54.333664 1106.853516,56.302750 1121.276855,60.996674 
	C1142.862549,68.021523 1153.527466,83.360123 1155.902344,105.220299 
	C1156.473145,110.473999 1156.428101,115.794617 1156.683228,121.456512 
	C1129.570312,121.456512 1103.025146,121.456512 1076.506958,121.456512 
	C1076.298218,121.120430 1075.970093,120.840691 1075.985962,120.581932 
	C1076.977539,104.328667 1066.156738,99.037613 1054.263428,98.131111 
	C1040.181030,97.057762 1025.989136,97.421532 1011.380981,97.197510 
z"/>
<path fill="#fff" opacity="1.000000" stroke="none" 
	d="
M1487.358398,80.224777 
	C1482.531616,85.633942 1476.859253,87.227966 1470.445312,84.988823 
	C1464.416626,82.884193 1460.942993,78.184212 1460.382080,71.944870 
	C1459.835205,65.863548 1462.590820,61.015999 1467.850342,57.756184 
	C1473.403687,54.314178 1481.484985,55.306232 1486.234009,59.970154 
	C1491.672974,65.311417 1492.176636,72.627197 1487.358398,80.224777 
M1469.322632,76.043221 
	C1469.606689,77.067101 1469.890747,78.090981 1470.174805,79.114861 
	C1470.595581,79.058197 1471.016357,79.001526 1471.437134,78.944862 
	C1471.758423,76.651222 1472.079712,74.357590 1472.325806,72.600029 
	C1479.905273,68.639252 1479.225220,76.620598 1482.871826,80.453880 
	C1482.490845,75.662315 1481.623413,72.412720 1482.131592,69.394798 
	C1482.943604,64.572746 1481.897583,62.463585 1477.064575,62.158783 
	C1474.653442,62.006710 1472.224731,62.132309 1469.319824,62.132309 
	C1469.319824,66.901695 1469.319824,71.018356 1469.322632,76.043221 
z"/>

<path fill="#fff" opacity="1.000000" stroke="none" 
	d="
M1473.236572,69.875107 
	C1472.470459,68.221664 1472.131348,66.617569 1471.828979,65.187454 
	C1472.746582,64.749329 1473.055298,64.461708 1473.322266,64.496284 
	C1475.797607,64.816895 1479.848145,62.808392 1479.888428,67.196983 
	C1479.924561,71.138153 1476.039429,69.576286 1473.236572,69.875107 
z"/>
</svg>